<?xml version="1.0" encoding="UTF-8" standalone="no"?>
<svg width="390px" height="156px" viewBox="0 0 390 156" version="1.1" xmlns="http://www.w3.org/2000/svg" xmlns:xlink="http://www.w3.org/1999/xlink" xmlns:sketch="http://www.bohemiancoding.com/sketch/ns">
    <!-- Generator: Sketch 3.1.1 (8761) - http://www.bohemiancoding.com/sketch -->
    <title>Slice 2</title>
    <desc>Created with Sketch.</desc>
    <defs></defs>
    <g id="Page-1" stroke="none" stroke-width="1" fill="none" fill-rule="evenodd" sketch:type="MSPage">
        <g id="logo" sketch:type="MSLayerGroup" transform="translate(-1.000000, 3.000000)">
            <g id="g16" transform="translate(140.878455, 4.570017)" fill="#161413" sketch:type="MSShapeGroup">
                <path d="M15.8109519,0 L0.809038533,26.8493209 L0,25.1702478 L14.061277,0 L15.8109519,0 L15.8109519,0 Z" id="path18"></path>
            </g>
            <g id="g20" transform="translate(127.909824, 2.919040)" fill="#FFFFFF" sketch:type="MSShapeGroup">
                <path d="M27.9539743,0 L12.9520609,26.8493209 L0,0 L27.9539743,0 L27.9539743,0 Z" id="path22"></path>
            </g>
            <g id="g24" transform="translate(1.232497, 0.855260)" fill="#161413" sketch:type="MSShapeGroup">
                <path d="M127.840576,40.7842832 L145.846426,40.7842832 L133.661138,134.883221 L140.171149,134.883221 L139.545099,139.712478 L115.028998,139.712478 L115.652887,134.883221 L122.162897,134.883221 L133.724536,45.6128192 L127.214285,45.6128192 L127.840576,40.7842832 L127.840576,40.7842832 Z M292.456983,104.301132 C290.074774,115.904796 286.573503,124.986968 281.969981,131.523634 C276.826138,138.828755 270.680903,142.464505 263.529473,142.464505 C255.515933,142.464505 249.493171,137.440734 245.482799,127.359571 C241.474828,117.278408 240.495049,104.45002 242.517045,88.9159523 C244.527034,73.477941 248.83278,60.7835525 255.429482,50.833267 C262.026184,40.8851429 269.309692,35.9252492 277.280006,35.9252492 C284.719607,35.9252492 290.012337,39.6282394 293.175008,47.0644779 C296.34008,54.4704584 297.065309,64.8501178 295.333885,78.1376571 L294.968869,80.9494803 L256.375642,80.9494803 C256.277184,81.7092897 256.080267,83.0646514 255.789695,84.9807447 C255.503926,86.86634 255.282996,88.3859588 255.143713,89.4764438 C253.107309,105.110411 252.987238,116.913392 254.807514,124.881305 C256.62539,132.846817 260.316373,136.845182 265.885267,136.845182 C271.271653,136.845182 276.088902,133.608067 280.339416,127.160253 C284.066421,121.485697 286.974541,113.880398 289.051769,104.301132 C289.532053,100.288359 293.179811,100.888714 292.456983,104.301132 L292.456983,104.301132 Z M257.441873,75.9237877 L282.973774,76.0222459 C283.197106,74.6010853 283.413234,73.2457236 283.598144,71.98858 C283.783053,70.734078 283.934342,69.5756328 284.078428,68.4522484 C285.324765,58.8981973 285.324765,51.7923943 284.066421,47.0973773 C282.803273,42.4376612 280.293789,40.0900326 276.511552,40.0900326 C272.217812,40.0900326 268.397152,43.23037 265.078389,49.4776652 C261.754824,55.7578598 259.209318,64.5523416 257.441873,75.9237877 L257.441873,75.9237877 Z M118.56557,104.301132 C116.18288,115.904796 112.681609,124.986968 108.078086,131.523634 C102.935204,138.828755 96.7909302,142.464505 89.6382996,142.464505 C81.6247597,142.464505 75.6024776,137.440734 71.5923457,127.359571 C67.5822137,117.278408 66.6019539,104.45002 68.6258711,88.9159523 C70.6377811,73.477941 74.9411264,60.7835525 81.5380684,50.833267 C88.1350104,40.8851429 95.4189987,35.9252492 103.390033,35.9252492 C110.828913,35.9252492 116.121884,39.6282394 119.283114,47.0644779 C122.448906,54.4704584 123.173655,64.8501178 121.442951,78.1376571 L121.077215,80.9494803 L82.4854288,80.9494803 C82.3869705,81.7092897 82.190054,83.0646514 81.899242,84.9807447 C81.6132329,86.86634 81.3927825,88.3859588 81.2520592,89.4764438 C79.2163752,105.110411 79.0967844,116.913392 80.9165808,124.881305 C82.7342159,132.846817 86.4254392,136.845182 91.9950535,136.845182 C97.3771169,136.845182 102.198689,133.608067 106.448242,127.160253 C110.176928,121.485697 113.082646,113.880398 115.160355,104.301132 C115.638718,100.288359 119.287677,100.888714 118.56557,104.301132 L118.56557,104.301132 Z M83.55262,75.9237877 L109.079479,76.0222459 C109.306893,74.6010853 109.522541,73.2457236 109.70793,71.98858 C109.89308,70.734078 110.043169,69.5756328 110.188695,68.4522484 C111.433831,58.8981973 111.436233,51.7923943 110.176928,47.0973773 C108.91282,42.4376612 106.403576,40.0900326 102.62326,40.0900326 C98.3268787,40.0900326 94.5066991,43.23037 91.186015,49.4776652 C87.8629295,55.7578598 85.3207858,64.5523416 83.55262,75.9237877 L83.55262,75.9237877 Z M8.05556473,91.6619765 C8.06036757,91.9222905 8.06733169,92.349263 8.10239243,93.000048 C9.62921552,124.660375 14.9104193,140.22398 23.9625735,139.726886 C30.0038268,139.39549 35.3623562,136.216009 40.0830685,130.157226 C44.7826482,124.100844 47.6931697,116.730884 48.8187155,108.020933 C49.5833277,102.11584 49.0696639,97.1665124 47.2755627,93.2353872 C45.4605692,89.3052225 40.976637,84.7696598 33.8074365,79.5962799 C23.1160728,71.9933829 16.5052026,65.4809709 13.9887541,60.1152372 C11.4725458,54.7168441 10.7453957,47.8454198 11.8195511,39.5319425 C13.2265433,28.6434221 17.1759193,19.6452999 23.6904925,12.5065974 C30.1865749,5.36573374 38.0358576,1.52658295 47.2076025,1.02252481 C50.7886006,0.825368191 54.3203696,1.31789952 57.8077123,2.4693806 C61.3135459,3.61846026 64.7163586,5.4288911 68.0276772,7.93357258 C66.4002346,20.536467 64.772792,33.1391212 63.1451093,45.7441769 C62.973888,48.6827951 60.4951419,48.6006665 60.4600811,45.8921044 C60.3873181,44.8813466 60.3075909,43.4765156 60.1738318,41.6824145 C58.684711,16.931935 53.5886568,4.79803796 44.8813466,5.27880232 C39.0840776,5.59795109 34.0139587,8.10479385 29.6472158,12.8324702 C25.2994442,17.5603867 22.675172,23.3386844 21.7933704,30.1678438 C20.4308045,40.7256886 26.195174,50.4977886 39.116977,59.4514846 C39.7125293,59.8431562 40.1159679,60.1481366 40.3762819,60.3332861 C50.2610085,67.1576426 56.4545119,73.3019169 58.9308566,78.834069 C61.4074415,84.3640599 62.0968893,91.3690032 60.9994401,99.8825188 C59.442119,111.923241 55.0239858,122.225334 47.7611299,130.750377 C40.479543,139.275419 32.1213993,143.797294 22.6610036,144.320803 C17.4948279,144.604171 12.8584055,143.744462 8.74044983,141.712861 C4.61528987,139.712478 1.70500848,136.922027 0,133.382333 C1.78929834,119.523736 3.5809981,105.667541 5.37029644,91.8096639 C5.56024879,89.6029987 7.89130758,89.5981958 8.05556473,91.6619765 L8.05556473,91.6619765 Z M354.884308,43.6359699 C350.275982,43.6359699 346.392886,47.5570092 343.213405,55.3664283 C340.053136,63.1756073 337.428383,75.2953359 335.346352,91.6574138 C333.3988,106.98592 333.036185,118.325428 334.26091,125.714598 C335.509648,133.070149 338.38655,136.761132 342.913227,136.761132 C347.341447,136.761132 351.114078,132.971691 354.219115,125.421625 C357.324151,117.87396 359.879263,106.303917 361.862836,90.7170176 C363.990494,73.9985689 364.497194,61.9748971 363.402146,54.6534466 C362.290289,47.2966952 359.471021,43.6359699 354.884308,43.6359699 L354.884308,43.6359699 Z M364.975077,9.64554518 L365.592242,4.81700918 L383.701353,4.81700918 L367.172376,134.691108 L373.982805,134.691108 L373.341625,139.712478 L356.257921,139.712478 L358.808229,119.687033 C356.642148,127.400395 354.022198,133.132586 350.950782,136.85959 C347.879365,140.586595 344.25322,142.466907 340.062741,142.466907 C333.093819,142.466907 328.026822,137.733707 324.825729,128.240892 C321.643847,118.748078 321.014675,106.368755 322.957424,91.1062878 C324.892969,75.9098594 328.80008,63.3045636 334.664348,53.2603826 C340.521413,43.2466997 346.911592,38.2234085 353.779655,38.2234085 C357.521068,38.2234085 360.409976,39.8109875 362.489607,42.9558877 C364.564434,46.1312859 365.825179,50.9269224 366.23102,57.3103781 L372.299409,9.64554518 L364.975077,9.64554518 L364.975077,9.64554518 Z M306.93995,4.81700918 L324.693651,4.81700918 L308.087829,134.883221 L314.979905,134.883221 L314.36274,139.712478 L289.719364,139.712478 L290.334128,134.883221 L296.753125,134.883221 L312.741782,9.64554518 L306.322785,9.64554518 L306.93995,4.81700918 L306.93995,4.81700918 Z M235.822845,139.712478 L205.999605,139.712478 L206.696017,134.614262 L214.284506,134.614262 L226.632609,44.2010242 L220.549812,44.2010242 L221.219808,39.3021266 L227.302606,39.3021266 L228.063856,33.7113797 C229.591159,22.5274846 232.239926,14.1412443 235.990945,8.48469856 C239.763576,2.82815281 244.608682,0 250.569007,0 C252.562186,0 254.51214,0.328274169 256.39005,1.02012339 C258.272764,1.67667172 260.102646,2.72969457 261.922923,4.14389104 C260.811065,12.3003154 259.694405,20.4567398 258.582547,28.6129241 C258.335201,31.3779195 254.81712,31.1481036 254.639415,28.6129241 C253.808523,17.8910623 253.018456,11.1159349 252.286023,8.3204414 C251.55359,5.52518806 250.518578,4.14389104 249.188191,4.14389104 C247.432752,4.14389104 246.030323,5.45938914 244.961691,8.09062547 C243.917073,10.7218618 242.783602,16.5097653 241.566082,25.4211962 L239.672322,39.3021266 L254.185546,39.3021266 L253.51555,44.2010242 L239.002326,44.2010242 L226.654222,134.614262 L236.516856,134.614262 L235.822845,139.712478 L235.822845,139.712478 Z M144.188485,139.712478 L144.833266,134.883221 L151.411477,134.883221 L163.31772,45.6128192 L156.737348,45.6128192 L157.382129,40.7842832 L174.726868,40.7842832 L172.501232,57.4722339 C174.438457,51.6070047 177.236112,46.8769269 180.861777,43.3427565 C184.508334,39.8109875 188.35685,38.0286533 192.418612,38.0286533 C198.711294,38.0286533 202.803315,40.589528 204.700437,45.7091162 C206.590355,50.8613636 206.494298,61.1658586 204.429076,76.6555004 L196.662883,134.883221 L203.242775,134.883221 L202.599194,139.712478 L178.200042,139.712478 L178.844824,134.883221 L185.547188,134.883221 L193.537194,74.969223 C195.342102,61.4261726 195.82959,52.8055536 194.979487,49.1445882 C194.148596,45.4838629 192.04327,43.6359699 188.66159,43.6359699 C184.473273,43.6359699 180.667022,46.9729837 177.264209,53.6167534 C173.861396,60.2583618 171.408345,69.2355917 169.895931,80.5741383 L162.653967,134.883221 L169.232178,134.883221 L168.589558,139.712478 L144.188485,139.712478 L144.188485,139.712478 Z" id="path26"></path>
            </g>
            <g id="g28" transform="translate(-0.005676, 0.201882)" fill="#FFFFFF" sketch:type="MSShapeGroup">
                <path d="M127.840335,40.7866846 L145.846426,40.7866846 L133.661138,134.884422 L140.171149,134.884422 L139.545099,139.713678 L115.026596,139.713678 L115.652647,134.884422 L122.162897,134.884422 L133.724296,45.6152206 L127.214285,45.6152206 L127.840335,40.7866846 L127.840335,40.7866846 Z M292.456983,104.304735 C290.074774,115.903595 286.573503,124.985767 281.969981,131.524835 C276.826138,138.832357 270.680903,142.468108 263.529473,142.468108 C255.515933,142.468108 249.495572,137.441935 245.4852,127.360772 C241.474828,117.277208 240.492647,104.453623 242.517045,88.9159523 C244.527034,73.477941 248.830379,60.7859539 255.429482,50.8356684 C262.026184,40.8851429 269.309692,35.9276506 277.282408,35.9276506 C284.719607,35.9276506 290.014739,39.6282394 293.175008,47.0668793 C296.34008,54.4728598 297.062908,64.8525192 295.331484,78.1400585 L294.966468,80.9494803 L256.378043,80.9494803 C256.279585,81.7116911 256.080267,83.0648915 255.792097,84.9831461 C255.501525,86.86634 255.285397,88.3883602 255.143713,89.4788452 C253.104907,105.114013 252.989639,116.914593 254.805113,124.880104 C256.622988,132.848017 260.316373,136.848784 265.887668,136.848784 C271.269251,136.848784 276.088902,133.609268 280.339416,127.161454 C284.066421,121.484496 286.972139,113.879198 289.049368,104.304735 C289.529652,100.28956 293.179811,100.889915 292.456983,104.304735 L292.456983,104.304735 Z M257.441873,75.9237877 L282.971373,76.0246473 C283.199508,74.6034867 283.415636,73.248125 283.600545,71.9909815 C283.783053,70.7364794 283.931941,69.5780342 284.080829,68.4546498 C285.322363,58.9005987 285.324765,51.7947958 284.066421,47.0997787 C282.805675,42.4400626 280.293789,40.092434 276.511552,40.092434 C272.217812,40.092434 268.399554,43.2327715 265.078389,49.4800666 C261.752422,55.7602613 259.209318,64.5523416 257.441873,75.9237877 L257.441873,75.9237877 Z M118.565329,104.304735 C116.18264,115.903595 112.681369,124.985767 108.077846,131.524835 C102.934964,138.832357 96.7906901,142.468108 89.6380594,142.468108 C81.6247597,142.468108 75.6024776,137.441935 71.5923457,127.360772 C67.5822137,117.277208 66.6019539,104.453623 68.6256309,88.9159523 C70.6353796,73.477941 74.9411264,60.7859539 81.5380684,50.8356684 C88.1350104,40.8851429 95.4189987,35.9276506 103.390033,35.9276506 C110.828913,35.9276506 116.121884,39.6282394 119.283114,47.0668793 C122.448906,54.4728598 123.171254,64.8525192 121.44055,78.1400585 L121.074814,80.9494803 L82.4854288,80.9494803 C82.3869705,81.7116911 82.190054,83.0648915 81.899242,84.9831461 C81.6129927,86.86634 81.3925423,88.3883602 81.2518191,89.4788452 C79.2163752,105.114013 79.0967844,116.914593 80.9141794,124.880104 C82.7339758,132.848017 86.4251991,136.848784 91.9950535,136.848784 C97.3771169,136.848784 102.196287,133.609268 106.448002,127.161454 C110.174526,121.484496 113.080245,113.879198 115.157954,104.304735 C115.638718,100.28956 119.287677,100.889915 118.565329,104.304735 L118.565329,104.304735 Z M83.55262,75.9237877 L109.079239,76.0246473 C109.306893,74.6034867 109.522541,73.248125 109.70793,71.9909815 C109.890678,70.7364794 110.043169,69.5780342 110.188695,68.4546498 C111.433831,58.9005987 111.433831,51.7947958 110.174526,47.0997787 C108.91282,42.4400626 106.403576,40.092434 102.620859,40.092434 C98.3268787,40.092434 94.5066991,43.2327715 91.186015,49.4800666 C87.8629295,55.7602613 85.3183844,64.5523416 83.55262,75.9237877 L83.55262,75.9237877 Z M8.05316331,91.6643779 C8.06012743,91.9246919 8.06493027,92.349263 8.10239243,93.00341 C9.62921552,124.663977 14.9080178,140.227582 23.960172,139.728087 C30.0035866,139.394289 35.3599548,136.21721 40.0830685,130.160828 C44.7826482,124.102044 47.6929296,116.734486 48.8187155,108.024535 C49.5809263,102.119442 49.0696639,97.1653117 47.2755627,93.2356273 C45.4581677,89.307624 40.976637,84.7720613 33.8074365,79.5962799 C23.1160728,71.9957843 16.5049624,65.4809709 13.9863527,60.1176386 C11.4723057,54.7192455 10.7453957,47.8478212 11.8171496,39.5319425 C13.2241419,28.6436622 17.1735178,19.6477013 23.6904925,12.5065974 C30.1865749,5.36813516 38.0334562,1.52898437 47.2076025,1.02252481 C50.7886006,0.825608334 54.3203696,1.32030094 57.8077123,2.47178202 C61.3135459,3.62086168 64.7139572,5.43129252 68.0276772,7.935974 C66.4002346,20.5388684 64.7703906,33.1415227 63.1427079,45.7465783 C62.973888,48.6827951 60.4951419,48.6006665 60.4576797,45.8945058 C60.3873181,44.8813466 60.3051895,43.4765156 60.1738318,41.6848159 C58.684711,16.9343364 53.5886568,4.7982781 44.8811064,5.27904247 C39.0840776,5.59795109 34.0137185,8.10479385 29.6472158,12.8348716 C25.2992041,17.5603867 22.675172,23.3410859 21.7933704,30.1702452 C20.4284031,40.72809 26.195174,50.50019 39.1167369,59.453886 C39.7125293,59.8455576 40.1159679,60.150538 40.3762819,60.3332861 C50.2586071,67.160044 56.4545119,73.3043183 58.9308566,78.8364705 C61.4074415,84.3664614 62.0968893,91.3714047 60.9970387,99.8837195 C59.442119,111.926843 55.0215843,122.226535 47.7611299,130.751577 C40.4793028,139.27662 32.1213993,143.798494 22.6610036,144.322004 C17.4945878,144.605372 12.8584055,143.748065 8.74020969,141.714061 C4.61528987,139.713678 1.70260706,136.925629 0,133.381133 C1.78929834,119.527338 3.57859668,105.66634 5.36789502,91.8120653 C5.56024879,89.6054001 7.89130758,89.598436 8.05316331,91.6643779 L8.05316331,91.6643779 Z M354.881907,43.6383714 C350.275982,43.6383714 346.392886,47.5570092 343.215806,55.3688297 C340.053136,63.1756073 337.430785,75.2953359 335.346352,91.6598152 C333.396398,106.98472 333.038587,118.326628 334.26091,125.715799 C335.509648,133.071349 338.38655,136.764734 342.915629,136.764734 C347.343848,136.764734 351.111677,132.972891 354.219115,125.422826 C357.324151,117.87276 359.879263,106.305118 361.862836,90.719419 C363.990494,73.9985689 364.497194,61.9772985 363.402146,54.6534466 C362.290289,47.2990966 359.46862,43.6383714 354.881907,43.6383714 L354.881907,43.6383714 Z M364.975077,9.64554518 L365.592242,4.81700918 L383.701353,4.81700918 L367.169975,134.689907 L373.982805,134.689907 L373.344027,139.713678 L356.257921,139.713678 L358.808229,119.688234 C356.644549,127.399194 354.0246,133.136188 350.953183,136.863192 C347.879365,140.587795 344.25322,142.468108 340.06034,142.468108 C333.093819,142.468108 328.026822,137.737309 324.825729,128.244494 C321.643847,118.749278 321.014675,106.369956 322.957424,91.1086893 C324.890567,75.9122608 328.797678,63.306965 334.664348,53.2603826 C340.523814,43.2491011 346.911592,38.2258099 353.779655,38.2258099 C357.521068,38.2258099 360.409976,39.813389 362.489607,42.9558877 C364.564434,46.1312859 365.825179,50.9293238 366.233421,57.3127796 L372.299409,9.64554518 L364.975077,9.64554518 L364.975077,9.64554518 Z M306.93995,4.81700918 L324.693651,4.81700918 L308.087829,134.884422 L314.977504,134.884422 L314.36274,139.713678 L289.719364,139.713678 L290.334128,134.884422 L296.753125,134.884422 L312.741782,9.64554518 L306.325186,9.64554518 L306.93995,4.81700918 L306.93995,4.81700918 Z M235.819483,139.713678 L205.998645,139.713678 L206.692655,134.615463 L214.281144,134.615463 L226.631649,44.2034256 L220.548851,44.2034256 L221.218847,39.3021266 L227.299244,39.3021266 L228.065297,33.7113797 C229.590199,22.5298861 232.236564,14.1436457 235.989984,8.48709998 C239.765017,2.82839295 244.608682,0 250.571409,0 C252.564588,0 254.51214,0.330675589 256.392452,1.02012339 C258.275165,1.67907314 260.102646,2.73209599 261.922923,4.14389104 C260.808664,12.3003154 259.696806,20.4591412 258.584949,28.6131642 C258.335201,31.3779195 254.814719,31.150505 254.637014,28.6131642 C253.806122,17.8934637 253.018456,11.1159349 252.286023,8.32284282 C251.55359,5.52518806 250.516176,4.14389104 249.190592,4.14389104 C247.430351,4.14389104 246.030323,5.46179056 244.964092,8.09086561 C243.917073,10.7221019 242.783602,16.5097653 241.568484,25.4235976 L239.671362,39.3021266 L254.185546,39.3021266 L253.51555,44.2034256 L239.001365,44.2034256 L226.655663,134.615463 L236.515895,134.615463 L235.819483,139.713678 L235.819483,139.713678 Z M144.188485,139.713678 L144.833266,134.884422 L151.411477,134.884422 L163.31772,45.6152206 L156.737107,45.6152206 L157.379727,40.7866846 L174.726868,40.7866846 L172.501232,57.4746353 C174.438217,51.6072448 177.233711,46.8769269 180.861537,43.3451579 C184.508334,39.813389 188.354449,38.0310547 192.418372,38.0310547 C198.707932,38.0310547 202.802354,40.5919294 204.697075,45.7115176 C206.589394,50.8637651 206.493337,61.16826 204.428116,76.6555004 L196.664324,134.884422 L203.244216,134.884422 L202.598233,139.713678 L178.199802,139.713678 L178.842422,134.884422 L185.547188,134.884422 L193.534793,74.9716245 C195.341141,61.4261726 195.831031,52.807955 194.979247,49.1469896 C194.146915,45.4841031 192.04327,43.6383714 188.659189,43.6383714 C184.473033,43.6383714 180.667022,46.9753852 177.264209,53.6169936 C173.861396,60.2607632 171.405944,69.2355917 169.893529,80.5765397 L162.651566,134.884422 L169.232178,134.884422 L168.587156,139.713678 L144.188485,139.713678 L144.188485,139.713678 Z" id="path30"></path>
            </g>
        </g>
    </g>
</svg>